<svg xmlns="http://www.w3.org/2000/svg" xmlns:xlink="http://www.w3.org/1999/xlink" width="125.26" height="115.595" viewBox="0 0 125.26 115.595">
  <defs>
    <clipPath id="clip-path">
      <rect id="Rectangle_25" data-name="Rectangle 25" width="125.26" height="115.595" fill="none"/>
    </clipPath>
  </defs>
  <g id="Group_10" data-name="Group 10" transform="translate(-1523.615 -334)">
    <g id="Group_9" data-name="Group 9" transform="translate(1523.615 334)">
      <g id="Group_7" data-name="Group 7" clip-path="url(#clip-path)">
        <path id="Path_11" data-name="Path 11" d="M17.149,114.631a2.119,2.119,0,0,1-.624-.1,1.772,1.772,0,0,1-1.175-.884,1.744,1.744,0,0,1-.1-1.456q.26-.656.527-1.307c.379-.932.738-1.812,1.056-2.712a29.107,29.107,0,0,0,.58-17.713,5,5,0,0,0-1.236-1.9A50.817,50.817,0,0,1,5.26,70.707,45.468,45.468,0,0,1,7.618,34.16c4.93-9.821,12.757-17.721,23.268-23.489A65.641,65.641,0,0,1,62.811,2.5c2.26,0,4.577.11,6.888.329,14.032,1.323,26.269,6.358,36.377,14.964,9.585,8.162,15.46,18.052,17.461,29.393a45.514,45.514,0,0,1-7.069,33.793,57.747,57.747,0,0,1-25.884,21.368,68,68,0,0,1-27.333,5.675c-2.285,0-4.626-.111-6.959-.329a62.135,62.135,0,0,1-17.319-4.11A4.566,4.566,0,0,0,37.3,103.2a3.311,3.311,0,0,0-2.5,1.318,36.026,36.026,0,0,1-16.235,9.81c-.333.1-.67.181-1.01.254a1.986,1.986,0,0,1-.395.042Z" transform="translate(-0.768 -0.766)" fill="#ffd228"/>
        <path id="Path_12" data-name="Path 12" d="M62.043,3.467q3.333,0,6.727.321c13.257,1.248,25.222,5.879,35.415,14.558,8.819,7.51,14.841,16.819,16.878,28.374a43.757,43.757,0,0,1-6.812,32.543A55.822,55.822,0,0,1,89.124,99.992a66,66,0,0,1-26.641,5.53q-3.375,0-6.8-.322a60.205,60.205,0,0,1-16.836-3.993,6.247,6.247,0,0,0-2.324-.5,5.083,5.083,0,0,0-3.764,1.863A34.191,34.191,0,0,1,17.3,111.905c-.292.086-.588.159-.886.223a.112.112,0,0,1-.031,0,2.106,2.106,0,0,1-.283-.069c.541-1.366,1.121-2.7,1.607-4.079a30.721,30.721,0,0,0,.617-18.75,6.83,6.83,0,0,0-1.63-2.616A49.467,49.467,0,0,1,6.131,69.367a43.645,43.645,0,0,1,2.27-35.2c5.024-10.011,12.807-17.4,22.55-22.747A63.709,63.709,0,0,1,62.043,3.467m0-3.467a67.365,67.365,0,0,0-32.76,8.385C18.459,14.323,10.391,22.475,5.3,32.616A47.133,47.133,0,0,0,2.854,70.51,52.5,52.5,0,0,0,14.135,88.962a3.6,3.6,0,0,1,.844,1.192,27.4,27.4,0,0,1-.542,16.678c-.305.862-.657,1.724-1.028,2.635-.179.439-.358.878-.533,1.318a3.467,3.467,0,0,0,1.949,4.5,3.522,3.522,0,0,0,.463.146,3.853,3.853,0,0,0,1.1.164,3.767,3.767,0,0,0,.759-.08c.416-.089.786-.183,1.138-.287a37.744,37.744,0,0,0,17-10.281c.737-.779,1.094-.779,1.248-.779a2.9,2.9,0,0,1,1.035.254,63.84,63.84,0,0,0,17.8,4.23c2.386.224,4.785.337,7.121.337a69.714,69.714,0,0,0,28.025-5.819,59.454,59.454,0,0,0,26.643-22.009,47.2,47.2,0,0,0,7.325-35.043c-2.074-11.749-8.144-21.984-18.045-30.411C96.049,6.865,83.487,1.694,69.094.336,66.729.113,64.356,0,62.043,0" transform="translate(0 0)" fill="#542118"/>
      </g>
    </g>
    <rect id="Rectangle_26" data-name="Rectangle 26" width="35.368" height="35.368" transform="translate(1569.652 372.142)" fill="#542118"/>
  </g>
</svg>
