<svg id="Group_4" data-name="Group 4" xmlns="http://www.w3.org/2000/svg" xmlns:xlink="http://www.w3.org/1999/xlink" width="125.263" height="115.605" viewBox="0 0 125.263 115.605">
  <defs>
    <clipPath id="clip-path">
      <rect id="Rectangle_3" data-name="Rectangle 3" width="125.263" height="115.605" fill="none"/>
    </clipPath>
  </defs>
  <g id="Group_3" data-name="Group 3" clip-path="url(#clip-path)">
    <path id="Path_3" data-name="Path 3" d="M17.15,114.638a2.12,2.12,0,0,1-.623-.1,1.772,1.772,0,0,1-1.175-.884,1.744,1.744,0,0,1-.1-1.457q.26-.656.527-1.307c.379-.932.738-1.812,1.056-2.712a29.109,29.109,0,0,0,.58-17.714,5,5,0,0,0-1.236-1.9A50.822,50.822,0,0,1,5.26,70.711a45.464,45.464,0,0,1,2.36-36.55c4.928-9.82,12.755-17.723,23.267-23.489A65.643,65.643,0,0,1,62.815,2.5c2.26,0,4.578.11,6.889.329,14.033,1.323,26.271,6.358,36.379,14.965,9.585,8.163,15.461,18.053,17.463,29.395a45.517,45.517,0,0,1-7.07,33.8A57.75,57.75,0,0,1,90.59,102.353a68.011,68.011,0,0,1-27.335,5.675c-2.285,0-4.627-.111-6.96-.329a62.159,62.159,0,0,1-17.32-4.111,4.559,4.559,0,0,0-1.679-.379,3.307,3.307,0,0,0-2.505,1.321,36.023,36.023,0,0,1-16.236,9.811c-.333.1-.67.181-1.01.254a1.991,1.991,0,0,1-.395.042Z" transform="translate(-0.768 -0.766)" fill="#ffd228"/>
    <path id="Path_4" data-name="Path 4" d="M62.046,3.468q3.333,0,6.727.321C82.031,5.039,94,9.668,104.19,18.348c8.82,7.51,14.84,16.82,16.879,28.376a43.757,43.757,0,0,1-6.813,32.545A55.826,55.826,0,0,1,89.129,100a66,66,0,0,1-26.641,5.53q-3.375,0-6.8-.322a60.2,60.2,0,0,1-16.837-3.993,6.253,6.253,0,0,0-2.324-.5,5.085,5.085,0,0,0-3.765,1.863A34.191,34.191,0,0,1,17.3,111.912c-.292.086-.588.159-.886.223a.147.147,0,0,1-.031,0,2.135,2.135,0,0,1-.283-.067c.541-1.366,1.121-2.706,1.607-4.079a30.721,30.721,0,0,0,.617-18.751,6.832,6.832,0,0,0-1.631-2.616A49.461,49.461,0,0,1,6.129,69.376,43.661,43.661,0,0,1,8.4,34.173c5.024-10.011,12.808-17.4,22.551-22.747A63.707,63.707,0,0,1,62.046,3.468m0-3.468A67.369,67.369,0,0,0,29.284,8.386C18.46,14.324,10.391,22.477,5.3,32.618a47.135,47.135,0,0,0-2.447,37.9A52.514,52.514,0,0,0,14.136,88.967a3.59,3.59,0,0,1,.842,1.189,27.406,27.406,0,0,1-.542,16.679c-.305.862-.657,1.724-1.029,2.638-.179.439-.358.878-.533,1.32a3.469,3.469,0,0,0,2.412,4.648,3.852,3.852,0,0,0,1.1.164,3.768,3.768,0,0,0,.759-.08c.415-.089.786-.183,1.138-.287a37.745,37.745,0,0,0,17-10.282c.737-.779,1.094-.779,1.246-.779a2.892,2.892,0,0,1,1.035.254,63.838,63.838,0,0,0,17.8,4.227c2.386.224,4.783.337,7.122.337a69.718,69.718,0,0,0,28.026-5.819,59.457,59.457,0,0,0,26.645-22.01,47.2,47.2,0,0,0,7.325-35.045c-2.074-11.75-8.145-21.982-18.046-30.413C96.054,6.866,83.492,1.694,69.1.336,66.733.113,64.361,0,62.046,0" transform="translate(0 0)" fill="#542118"/>
    <path id="Path_5" data-name="Path 5" d="M75.571,67.616c0-5.738-.013-11.476.006-17.214.009-2.708,1.356-4.419,3.729-4.5a4.8,4.8,0,0,1,2.74.818q12.344,8.735,24.589,17.609a3.919,3.919,0,0,1,.008,6.664C98.478,76.909,90.27,82.763,82.076,88.636a3.945,3.945,0,0,1-4.335.412,4.083,4.083,0,0,1-2.173-4q.014-8.717,0-17.433" transform="translate(-23.159 -14.067)" fill="#542118"/>
  </g>
</svg>
