<svg xmlns="http://www.w3.org/2000/svg" xmlns:xlink="http://www.w3.org/1999/xlink" width="180.622" height="166.685" viewBox="0 0 180.622 166.685">
  <defs>
    <clipPath id="clip-path">
      <rect id="Rectangle_25" data-name="Rectangle 25" width="180.622" height="166.685" fill="none"/>
    </clipPath>
  </defs>
  <g id="Group_11" data-name="Group 11" transform="translate(-1531 -210)">
    <g id="Group_9" data-name="Group 9" transform="translate(1531 210)">
      <g id="Group_7" data-name="Group 7" clip-path="url(#clip-path)">
        <path id="Path_11" data-name="Path 11" d="M23.621,164.19a3.056,3.056,0,0,1-.9-.143,2.556,2.556,0,0,1-1.694-1.274,2.515,2.515,0,0,1-.139-2.1q.375-.946.76-1.884c.547-1.344,1.064-2.613,1.523-3.911a41.972,41.972,0,0,0,.836-25.542,7.209,7.209,0,0,0-1.782-2.745A73.277,73.277,0,0,1,6.477,100.853c-6.257-18-5.113-35.733,3.4-52.7C16.986,33.992,28.272,22.6,43.429,14.283A94.653,94.653,0,0,1,89.464,2.5c3.259,0,6.6.159,9.933.474,20.234,1.908,37.88,9.168,52.455,21.578,13.821,11.77,22.293,26.03,25.179,42.384,3.056,17.319-.373,33.714-10.194,48.729-8.829,13.5-21.386,23.866-37.324,30.812A98.06,98.06,0,0,1,90.1,154.66c-3.295,0-6.671-.16-10.035-.475a89.6,89.6,0,0,1-24.973-5.927,6.584,6.584,0,0,0-2.421-.546c-.843,0-2.015.217-3.612,1.9a51.948,51.948,0,0,1-23.411,14.146c-.48.141-.966.261-1.456.366a2.863,2.863,0,0,1-.569.061Z" fill="#ffd228"/>
        <path id="Path_12" data-name="Path 12" d="M89.464,5q4.806,0,9.7.463c19.116,1.8,36.369,8.477,51.067,20.993,12.717,10.829,21.4,24.253,24.338,40.915,2.984,16.9-.458,32.607-9.823,46.926-8.952,13.687-21.315,23.388-36.231,29.889A95.172,95.172,0,0,1,90.1,152.16q-4.866,0-9.8-.464a86.814,86.814,0,0,1-24.277-5.758,9.008,9.008,0,0,0-3.351-.725,7.33,7.33,0,0,0-5.428,2.686,49.3,49.3,0,0,1-22.3,13.466c-.421.124-.848.229-1.277.321a.162.162,0,0,1-.044,0,3.035,3.035,0,0,1-.408-.1c.78-1.97,1.617-3.9,2.317-5.882a44.3,44.3,0,0,0,.89-27.037,9.849,9.849,0,0,0-2.351-3.772,71.33,71.33,0,0,1-15.23-24.869C2.8,82.656,3.878,65.684,12.114,49.274c7.244-14.435,18.467-25.092,32.516-32.8A91.867,91.867,0,0,1,89.464,5m0-5A97.138,97.138,0,0,0,42.225,12.091c-15.608,8.563-27.242,20.318-34.58,34.94-8.83,17.6-10.018,35.979-3.529,54.643a75.7,75.7,0,0,0,16.267,26.607A5.193,5.193,0,0,1,21.6,130a39.515,39.515,0,0,1-.782,24.049c-.44,1.243-.947,2.486-1.483,3.8-.258.633-.516,1.266-.769,1.9a5,5,0,0,0,2.81,6.489,5.076,5.076,0,0,0,.668.211,5.556,5.556,0,0,0,1.579.236,5.433,5.433,0,0,0,1.094-.115c.6-.129,1.134-.264,1.641-.414a54.426,54.426,0,0,0,24.519-14.825c1.063-1.123,1.577-1.123,1.8-1.123a4.183,4.183,0,0,1,1.492.366,92.055,92.055,0,0,0,25.669,6.1c3.441.323,6.9.486,10.269.486a100.526,100.526,0,0,0,40.411-8.391c16.393-7.144,29.319-17.822,38.419-31.736C179.116,101.469,182.67,84.468,179.5,66.5c-2.99-16.942-11.744-31.7-26.02-43.852C138.5,9.9,120.386,2.443,99.632.485,96.222.163,92.8,0,89.464,0" fill="#542118"/>
      </g>
    </g>
    <g id="Polygon_3" data-name="Polygon 3" transform="translate(1657 259) rotate(90)" fill="#542118">
      <path d="M 60.1353874206543 52.5 L 0.8646146655082703 52.5 L 30.50000190734863 1.002441763877869 L 60.1353874206543 52.5 Z" stroke="none"/>
      <path d="M 30.50000190734863 2.004901885986328 L 1.729236602783203 52 L 59.27076721191406 52 L 30.50000190734863 2.004901885986328 M 30.50000190734863 0 L 61 53 L 3.814697265625e-06 53 L 30.50000190734863 0 Z" stroke="none" fill="#707070"/>
    </g>
  </g>
</svg>
